<svg width="220" height="56" viewBox="0 0 220 56" fill="none" xmlns="http://www.w3.org/2000/svg" role="img" aria-label="PalmOS">
  <defs>
    <mask id="palmos-glyph-cutout-ink" maskUnits="userSpaceOnUse" x="8" y="8" width="40" height="40">
      <rect x="8" y="8" width="40" height="40" rx="10" fill="white"/>
      <rect x="20" y="20" width="16" height="16" rx="5" fill="black"/>
    </mask>
  </defs>
  <g mask="url(#palmos-glyph-cutout-ink)">
    <rect x="8" y="8" width="40" height="40" rx="10" fill="#111614"/>
  </g>
  <path d="M36.5 33.5h8a4 4 0 0 1 4 4v6a4 4 0 0 1-4 4h-8a4 4 0 0 1-4-4v-6a4 4 0 0 1 4-4Z" stroke="#14593A" stroke-width="2.2"/>
  <circle cx="40.5" cy="40.5" r="1.7" fill="#14593A"/>
  <text x="62" y="38" fill="#111614" font-family="Inter, ui-sans-serif, system-ui, -apple-system, BlinkMacSystemFont, 'Segoe UI', sans-serif" font-size="28" font-weight="700" letter-spacing="0">PalmOS</text>
</svg>
